<svg width="64" height="32" viewBox="0 0 64 32" fill="none" xmlns="http://www.w3.org/2000/svg">
<circle cx="16" cy="16" r="16" fill="white"/>
<path d="M11.664 10.184L9.744 9.848V8.168H23.232L23.496 12.656H21.336L20.376 10.04L15.768 9.752V16.4L18.912 16.328L19.392 14.168H21.072V20.576H19.416L18.912 18.344L15.768 18.248V24.152L19.44 24.416V26H9.864V24.416L11.664 24.152V10.184Z" fill="#000638"/>
<circle cx="48" cy="16" r="16" fill="white"/>
<path d="M40.712 10.16L38.84 9.848V8.168H44.864L51.488 18.392L52.832 21.272V10.16L50.792 9.848V8.168H56.936V9.848L55.112 10.16V26H51.584L44.552 15.032L42.968 11.864V24.152L45.512 24.416V26H38.84V24.416L40.712 24.152V10.16Z" fill="#000638"/>
</svg>
